# xmcd
# 
# Track frame offsets:
#     150
#     16145
#     40885
#     55837
#     80034
#     94654
#     118364
#     141743
#     164459
#     198256
#     216968
#     238060
#     265486
#     288073
#     303715
# 
# Disc length: 4359
# 
# Revision: 2
# Processed by: cddbd v1.5.2PL0 Copyright (c) Steve Scherf et al.
# Submitted via: fre:ac v1.0.31
# 
DISCID=e411050f
DTITLE=Lynyrd Skynyrd - Street Survivors Deluxe Edition - Disc 2
DYEAR=1977
DGENRE=Rock
TTITLE0=What's Your Name (Alternate Mix)
TTITLE1=That Smell (Criteria Studios Version)
TTITLE2=You Got That Right (Criteria Studios Version)
TTITLE3=I Never Dreamed (Criteria Studios Version)
TTITLE4=Georgia Peaches (Studio Outtake)
TTITLE5=Sweet Little Missy (Studio Outtake)
TTITLE6=Sweet Little Missy (Demo Version)
TTITLE7=Ain't No Good Life (Unreleased Remix)
TTITLE8=That Smell (Unreleased Remix)
TTITLE9=Jacksonville Kid (Alternate Version Of Honky Tonk Night Time Man)
TTITLE10=You Got That Right (Live 1977)
TTITLE11=That Smell (Live 1977)
TTITLE12=Ain't No Good Life (Live 1977)
TTITLE13=What's Your Name (Live 1977)
TTITLE14=Gimme Three Steps (Live 1977)
EXTD=
EXTT0=
EXTT1=
EXTT2=
EXTT3=
EXTT4=
EXTT5=
EXTT6=
EXTT7=
EXTT8=
EXTT9=
EXTT10=
EXTT11=
EXTT12=
EXTT13=
EXTT14=
PLAYORDER=
